<svg width="1440" height="1011" viewBox="0 0 1440 1011" fill="none" xmlns="http://www.w3.org/2000/svg">
<mask id="mask0_37_3152" style="mask-type:alpha" maskUnits="userSpaceOnUse" x="-365" y="-390" width="2143" height="1646">
<g clip-path="url(#clip0_37_3152)">
<path d="M771.747 205.764C771.747 353.024 564.071 484.542 443.966 484.542C323.86 484.542 -426.546 -31.9553 -426.546 -179.215C-426.546 -326.475 651.641 -123.745 771.747 -123.745C891.853 -123.745 771.747 58.5041 771.747 205.764Z" fill="url(#paint0_linear_37_3152)"/>
<path d="M856.844 920.945C856.844 1068.21 759.479 1187.58 639.373 1187.58C519.268 1187.58 -149.823 1153.26 -149.823 1006C-149.823 858.738 -147.617 472.416 -27.5111 472.416C289.746 641.749 546.784 393.609 756.873 487.986C935.247 568.116 819.876 812.406 856.844 920.945Z" fill="url(#paint1_radial_37_3152)"/>
<path d="M1103.54 290.324C1427.6 583.012 1277.91 435.924 1556.25 428.514C1599.92 436.925 1674.04 437.325 1621.23 371.634C1555.21 289.519 1576.49 231.521 1493.99 142.057C1411.48 52.5932 1361.24 -38.3006 1236.68 -180.591C1112.13 -322.881 1102.55 -205.587 962.127 -216.706C821.706 -227.825 885.752 -210.168 692.008 -3.71061C498.264 202.746 779.473 -2.36474 1103.54 290.324Z" fill="#D9D9D9"/>
<path d="M797.593 750.706C363.913 801.764 573.189 786.005 395.43 1000.32C360.341 1027.64 311.216 1083.15 395.43 1086.68C500.698 1091.09 530.325 1145.3 651.982 1142.15C773.639 1139 875.126 1161.06 1064.23 1161.06C1253.33 1161.06 1171.39 1076.6 1272.25 978.261C1373.1 879.927 1317.63 916.488 1289.9 634.722C1262.16 352.956 1231.27 699.648 797.593 750.706Z" fill="#D9D9D9"/>
</g>
</mask>
<g mask="url(#mask0_37_3152)">
<line x1="-18.0771" y1="595.64" x2="1493.5" y2="595.64" stroke="white" stroke-width="1.2607"/>
<line x1="-18.0771" y1="918.378" x2="1493.5" y2="918.378" stroke="white" stroke-width="1.2607"/>
<line x1="-18.0771" y1="272.902" x2="1493.5" y2="272.902" stroke="white" stroke-width="1.2607"/>
<line x1="-18.0771" y1="434.27" x2="1493.5" y2="434.27" stroke="white" stroke-width="1.2607"/>
<line x1="-18.0771" y1="757.008" x2="1493.5" y2="757.008" stroke="white" stroke-width="1.2607"/>
<line x1="-18.0771" y1="111.532" x2="1493.5" y2="111.532" stroke="white" stroke-width="1.2607"/>
<line x1="-18.0771" y1="514.955" x2="1493.5" y2="514.955" stroke="white" stroke-width="1.2607"/>
<line x1="-18.0771" y1="837.693" x2="1493.5" y2="837.693" stroke="white" stroke-width="1.2607"/>
<line x1="-18.0771" y1="192.217" x2="1493.5" y2="192.217" stroke="white" stroke-width="1.2607"/>
<line x1="-18.0771" y1="999.063" x2="1493.5" y2="999.063" stroke="white" stroke-width="1.2607"/>
<line x1="-18.0771" y1="353.585" x2="1493.5" y2="353.585" stroke="white" stroke-width="1.2607"/>
<line x1="-18.0771" y1="676.325" x2="1493.5" y2="676.325" stroke="white" stroke-width="1.2607"/>
<line x1="-18.0771" y1="30.8466" x2="1493.5" y2="30.8466" stroke="white" stroke-width="1.2607"/>
<line x1="29.1982" y1="-78.2029" x2="29.1982" y2="1089.2" stroke="white" stroke-width="1.2607"/>
<line x1="674.679" y1="-78.2029" x2="674.679" y2="1089.2" stroke="white" stroke-width="1.2607"/>
<line x1="351.939" y1="-78.2031" x2="351.939" y2="1089.2" stroke="white" stroke-width="1.2607"/>
<line x1="997.415" y1="-78.2029" x2="997.415" y2="1089.2" stroke="white" stroke-width="1.2607"/>
<line x1="1320.16" y1="-78.2029" x2="1320.16" y2="1089.2" stroke="white" stroke-width="1.2607"/>
<line x1="190.568" y1="-78.2029" x2="190.568" y2="1089.2" stroke="white" stroke-width="1.2607"/>
<line x1="836.045" y1="-78.2029" x2="836.045" y2="1089.2" stroke="white" stroke-width="1.2607"/>
<line x1="513.309" y1="-78.2029" x2="513.309" y2="1089.2" stroke="white" stroke-width="1.2607"/>
<line x1="1158.79" y1="-78.2031" x2="1158.79" y2="1089.2" stroke="white" stroke-width="1.2607"/>
<line x1="109.885" y1="-78.2029" x2="109.885" y2="1089.2" stroke="white" stroke-width="1.2607"/>
<line x1="755.362" y1="-78.2031" x2="755.362" y2="1089.2" stroke="white" stroke-width="1.2607"/>
<line x1="432.622" y1="-78.2029" x2="432.622" y2="1089.2" stroke="white" stroke-width="1.2607"/>
<line x1="1078.1" y1="-78.2029" x2="1078.1" y2="1089.2" stroke="white" stroke-width="1.2607"/>
<line x1="1400.84" y1="-78.2029" x2="1400.84" y2="1089.2" stroke="white" stroke-width="1.2607"/>
<line x1="271.256" y1="-78.2029" x2="271.256" y2="1089.2" stroke="white" stroke-width="1.2607"/>
<line x1="916.732" y1="-78.2029" x2="916.732" y2="1089.2" stroke="white" stroke-width="1.2607"/>
<line x1="593.992" y1="-78.2029" x2="593.992" y2="1089.2" stroke="white" stroke-width="1.2607"/>
<line x1="1239.47" y1="-78.2029" x2="1239.47" y2="1089.2" stroke="white" stroke-width="1.2607"/>
</g>
<defs>
<linearGradient id="paint0_linear_37_3152" x1="92.8613" y1="-105.464" x2="547.343" y2="136.59" gradientUnits="userSpaceOnUse">
<stop stop-color="white"/>
<stop offset="1" stop-color="white" stop-opacity="0"/>
</linearGradient>
<radialGradient id="paint1_radial_37_3152" cx="0" cy="0" r="1" gradientUnits="userSpaceOnUse" gradientTransform="translate(169.133 927.204) rotate(-29.3932) scale(777.019 1335.47)">
<stop stop-color="white"/>
<stop offset="1" stop-color="white" stop-opacity="0"/>
</radialGradient>
<clipPath id="clip0_37_3152">
<rect width="2143" height="1646" fill="white" transform="translate(-365 -390)"/>
</clipPath>
</defs>
</svg>
